<?xml version="1.0" encoding="utf-8"?>
<!-- Generator: Adobe Illustrator 22.0.0, SVG Export Plug-In . SVG Version: 6.00 Build 0)  -->
<svg version="1.1" id="Layer_1" xmlns="http://www.w3.org/2000/svg" xmlns:xlink="http://www.w3.org/1999/xlink" x="0px" y="0px"
	 viewBox="0 0 472.1 296.6" style="enable-background:new 0 0 472.1 296.6;" xml:space="preserve">
<style type="text/css">
	.st0{fill:#8C1C24;}
	.st1{fill:#8C1C24;stroke:#000000;stroke-linecap:round;stroke-linejoin:round;stroke-miterlimit:10;}
	.st2{fill:none;stroke:#8C1C24;stroke-width:10;stroke-miterlimit:10;}
	.st3{fill:none;stroke:#8C1C24;stroke-width:9;stroke-linecap:round;stroke-linejoin:round;stroke-miterlimit:10;}
	.st4{fill:#8C1C24;stroke:#FFFFFF;stroke-width:2;stroke-linecap:round;stroke-linejoin:round;stroke-miterlimit:10;}
	.st5{fill:#FFFFFF;stroke:#8C1C24;stroke-width:2;stroke-linecap:round;stroke-linejoin:round;stroke-miterlimit:10;}
	.st6{fill:#ED1C24;}
	.st7{fill:none;stroke:#000000;stroke-linecap:round;stroke-linejoin:round;stroke-miterlimit:10;}
</style>
<g>
	<path class="st0" d="M289.8,243.7c-2.8-1.6-5.1-3.9-6.7-7c-1.7-3.1-2.5-6.7-2.5-11c0-6,1.1-11.3,3.3-15.9c2.2-4.6,5.2-8.1,8.9-10.6
		c3.8-2.5,7.9-3.7,12.5-3.7c3.5,0,6.7,0.8,9.5,2.4c2.8,1.6,5.1,3.9,6.7,7c1.7,3.1,2.5,6.7,2.5,11c0,6-1.1,11.3-3.3,15.9
		c-2.2,4.6-5.2,8.1-8.9,10.6s-7.9,3.7-12.5,3.7C295.8,246.1,292.6,245.3,289.8,243.7z M308,236.2c2.3-1.9,4.2-4.5,5.4-7.9
		c1.3-3.4,1.9-7.2,1.9-11.5c0-4.7-1-8.3-3-10.7c-2-2.4-4.5-3.6-7.6-3.6c-3,0-5.7,0.9-8,2.8c-2.3,1.9-4.1,4.5-5.4,7.9s-2,7.2-2,11.5
		c0,4.7,1,8.3,3,10.7c2,2.4,4.5,3.6,7.6,3.6C303,239.1,305.7,238.1,308,236.2z"/>
	<path class="st0" d="M328.4,243.7c-0.6-1.6-0.9-4.1-0.9-7.6c0-5.1,0.7-10,2.2-14.6c0.4-1.1,0.9-2,1.7-2.5c0.8-0.5,1.9-0.8,3.4-0.8
		c0.8,0,1.3,0.1,1.7,0.3c0.3,0.2,0.5,0.6,0.5,1.1c0,0.6-0.3,2.1-0.9,4.3c-0.4,1.6-0.7,3-0.9,4.1s-0.4,2.6-0.6,4.4
		c1.3-3.4,2.8-6.2,4.4-8.3c1.6-2.1,3.2-3.6,4.8-4.6c1.6-0.9,3-1.4,4.3-1.4c2.6,0,3.8,1.3,3.8,3.8c0,1.5-0.4,4.3-1.3,8.3
		c-0.8,3.4-1.1,5.7-1.1,6.8c0,1.6,0.6,2.4,1.7,2.4c0.8,0,1.7-0.5,2.8-1.4c1.1-1,2.5-2.5,4.3-4.7c0.5-0.6,1-0.8,1.6-0.8
		c0.5,0,0.9,0.2,1.2,0.7s0.4,1.1,0.4,2c0,1.6-0.4,2.8-1.1,3.7c-1.7,2.1-3.5,3.8-5.5,5.1c-2,1.3-4.2,2-6.7,2c-2,0-3.5-0.6-4.6-1.7
		c-1-1.2-1.5-2.8-1.5-5.1c0-1.1,0.3-3.1,0.8-5.9c0.5-2.5,0.8-4.2,0.8-5.1c0-0.6-0.2-0.9-0.7-0.9c-0.5,0-1.2,0.7-2.2,2
		c-0.9,1.3-1.9,3.1-2.8,5.2c-1,2.2-1.7,4.5-2.3,6.9c-0.4,1.9-0.9,3.1-1.5,3.8c-0.6,0.7-1.5,1-2.7,1
		C330.1,246.1,329,245.3,328.4,243.7z"/>
	<path class="st0" d="M384.3,233.3c0.3,0.5,0.4,1.1,0.4,2c0,1.6-0.4,2.8-1.1,3.7c-1.7,2.1-3.5,3.8-5.6,5.1c-2,1.3-4.3,2-6.9,2
		c-8,0-12.1-5.7-12.1-17c0-1.7,0.1-3.5,0.2-5.3H357c-1.2,0-2-0.2-2.4-0.7c-0.4-0.4-0.6-1.1-0.6-2.1c0-2.2,0.9-3.3,2.7-3.3h3.4
		c0.7-4.3,1.7-8.3,3.1-11.9c1.4-3.6,3-6.5,5-8.6c2-2.1,4.1-3.2,6.3-3.2c1.7,0,3,0.7,3.9,2.2c0.9,1.5,1.4,3.3,1.4,5.5
		c0,6.1-2.6,11.4-7.7,16h6.6c0.6,0,1.1,0.1,1.4,0.4c0.3,0.3,0.4,0.8,0.4,1.5c0,2.7-2.2,4.1-6.7,4.1h-7.2c-0.1,2-0.1,3.5-0.1,4.6
		c0,4.1,0.5,7,1.5,8.6c1,1.7,2.5,2.5,4.6,2.5c1.7,0,3.2-0.5,4.5-1.5c1.3-1,2.8-2.6,4.6-4.6c0.5-0.6,1-0.8,1.6-0.8
		C383.6,232.6,384,232.8,384.3,233.3z M370.8,202c-0.7,1.5-1.4,3.5-2.1,6.2c-0.7,2.6-1.2,5.5-1.6,8.7c2.3-2,4.1-4.3,5.2-6.8
		c1.2-2.5,1.7-4.8,1.7-6.8c0-2.3-0.4-3.5-1.3-3.5C372.2,199.8,371.5,200.5,370.8,202z"/>
	<path class="st0" d="M381.4,243.4c-1.5-1.8-2.2-4.1-2.2-7c0-3.2,0.7-6.1,2.2-9c1.5-2.8,3.4-5.1,5.8-6.8c2.4-1.7,5-2.6,7.7-2.6
		c0.9,0,1.4,0.2,1.7,0.5s0.5,0.9,0.7,1.8c0.8-0.2,1.7-0.2,2.6-0.2c1.9,0,2.9,0.7,2.9,2.1c0,0.8-0.3,2.8-0.9,5.9
		c-0.9,4.5-1.4,7.7-1.4,9.5c0,0.6,0.1,1.1,0.4,1.4s0.7,0.5,1.2,0.5c0.7,0,1.7-0.5,2.7-1.4c1.1-1,2.5-2.5,4.3-4.7
		c0.5-0.6,1-0.8,1.6-0.8c0.5,0,0.9,0.2,1.2,0.7s0.4,1.1,0.4,2c0,1.6-0.4,2.8-1.1,3.7c-1.6,2-3.3,3.7-5.1,5.1
		c-1.8,1.4-3.6,2.1-5.3,2.1c-1.3,0-2.5-0.4-3.6-1.3s-1.9-2.1-2.5-3.6c-2.1,3.3-4.6,5-7.8,5C384.8,246.1,382.9,245.2,381.4,243.4z
		 M391.9,238.6c0.8-1,1.4-2.4,1.7-4.1l2.2-10.9c-1.7,0-3.2,0.7-4.6,1.9c-1.4,1.2-2.5,2.8-3.3,4.8s-1.2,4.1-1.2,6.3
		c0,1.2,0.2,2.1,0.7,2.7c0.5,0.6,1.2,0.9,2,0.9C390.3,240.1,391.1,239.6,391.9,238.6z"/>
	<path class="st0" d="M408.8,243.7c-0.6-1.6-0.9-4.1-0.9-7.6c0-5.1,0.7-10,2.2-14.6c0.4-1.1,0.9-2,1.7-2.5c0.8-0.5,1.9-0.8,3.4-0.8
		c0.8,0,1.3,0.1,1.7,0.3c0.3,0.2,0.5,0.6,0.5,1.1c0,0.6-0.3,2.1-0.9,4.3c-0.4,1.6-0.7,3-0.9,4.1s-0.4,2.6-0.6,4.4
		c1.3-3.4,2.8-6.2,4.4-8.3c1.6-2.1,3.2-3.6,4.8-4.6c1.6-0.9,3-1.4,4.3-1.4c2.6,0,3.8,1.3,3.8,3.8c0,0.5-0.2,1.8-0.5,3.7
		c-0.3,1.6-0.5,2.6-0.5,3c0,1.4,0.5,2.1,1.5,2.1c1.1,0,2.5-0.9,4.3-2.6c0.5-0.5,1-0.8,1.6-0.8c0.5,0,0.9,0.2,1.2,0.7
		c0.3,0.5,0.4,1.1,0.4,1.8c0,1.5-0.4,2.6-1.2,3.4c-1.1,1.1-2.4,2.1-3.9,2.9c-1.5,0.8-3,1.2-4.7,1.2c-2.1,0-3.7-0.5-4.8-1.6
		c-1.1-1.1-1.6-2.5-1.6-4.3c0-0.6,0.1-1.2,0.2-1.8c0.1-0.8,0.1-1.3,0.1-1.6c0-0.6-0.2-0.9-0.7-0.9c-0.6,0-1.4,0.7-2.3,2
		c-1,1.3-1.9,3.1-2.9,5.2c-0.9,2.2-1.7,4.5-2.3,6.9c-0.4,1.9-0.9,3.1-1.5,3.8c-0.6,0.7-1.5,1-2.7,1
		C410.5,246.1,409.4,245.3,408.8,243.7z"/>
	<path class="st0" d="M436.4,243.4c-1.2-1.8-1.7-4.2-1.7-7.2c0-1.8,0.2-4.1,0.7-6.8c0.5-2.8,1-5.4,1.7-7.8c0.4-1.3,0.8-2.1,1.4-2.6
		s1.5-0.7,2.8-0.7c2,0,3,0.7,3,2c0,1-0.4,3.3-1.1,6.9c-0.9,4.3-1.4,7.3-1.4,8.8c0,1.2,0.2,2.1,0.5,2.7c0.3,0.6,0.8,0.9,1.6,0.9
		c0.7,0,1.6-0.5,2.7-1.5c1.1-1,2.5-2.5,4.3-4.7c0.5-0.6,1-0.8,1.6-0.8c0.5,0,0.9,0.2,1.2,0.7s0.4,1.1,0.4,2c0,1.6-0.4,2.8-1.1,3.7
		c-3.9,4.8-7.6,7.2-10.9,7.2C439.4,246.1,437.6,245.2,436.4,243.4z M438.7,213.1c-0.8-0.8-1.2-1.8-1.2-3.2c0-1.4,0.5-2.5,1.6-3.5
		c1.1-0.9,2.4-1.4,4.1-1.4c1.5,0,2.6,0.4,3.6,1.1c0.9,0.7,1.4,1.7,1.4,3c0,1.6-0.5,2.8-1.5,3.8c-1,0.9-2.4,1.4-4.1,1.4
		C440.8,214.3,439.6,213.9,438.7,213.1z"/>
	<path class="st0" d="M453.3,244.3c-1.6-1.2-2.9-2.7-3.7-4.6c-0.8-1.9-1.2-3.9-1.2-6.1c0-3,0.6-5.7,1.7-8c1.1-2.3,2.7-4.2,4.6-5.5
		c1.9-1.3,4.1-2,6.5-2c2.3,0,4.3,0.6,6,1.7c1.7,1.2,2.9,2.7,3.7,4.6c0.8,1.9,1.2,3.9,1.2,6.1c0,3-0.6,5.7-1.7,8
		c-1.1,2.3-2.7,4.2-4.6,5.5c-2,1.3-4.1,2-6.5,2C456.9,246.1,455,245.5,453.3,244.3z M463.3,237.5c0.9-1.5,1.4-3.6,1.4-6.4
		c0-2.2-0.4-3.8-1.2-4.9c-0.8-1.1-1.7-1.7-2.8-1.7c-1.4,0-2.6,0.7-3.5,2.2c-0.9,1.4-1.4,3.6-1.4,6.4c0,2.2,0.4,3.9,1.2,5
		c0.8,1.1,1.8,1.6,3,1.6C461.3,239.7,462.4,239,463.3,237.5z"/>
	<path class="st0" d="M252.2,288c-3.2-2-4.7-5-4.7-9.1c0-2.2,0.4-3.8,1.1-5c0.7-1.1,1.9-1.7,3.3-1.7c1.1,0,1.9,0.3,2.6,0.8
		c0.7,0.6,1,1.3,1,2.1c0,0.8-0.1,1.5-0.2,2.1c0,0.2,0,0.4-0.1,0.8c-0.1,0.4-0.1,0.8-0.1,1.2c0,1.8,0.9,3.1,2.7,4
		c1.8,0.9,4.3,1.3,7.5,1.3c3.4,0,6-0.6,7.9-1.8c1.9-1.2,2.8-2.9,2.8-5.1c0-1.3-0.4-2.5-1.3-3.5c-0.9-1-2-1.8-3.3-2.4
		c-1.3-0.7-3.1-1.5-5.5-2.4c-3-1.2-5.5-2.3-7.4-3.4c-1.9-1.1-3.6-2.5-4.9-4.3c-1.4-1.8-2-4.1-2-6.8c0-2.8,0.8-5.4,2.3-7.6
		c1.5-2.2,3.7-3.9,6.6-5.1c2.9-1.2,6.2-1.8,10.1-1.8c2.9,0,5.5,0.4,7.9,1.3c2.4,0.8,4.3,2.1,5.8,3.9c1.4,1.7,2.2,3.9,2.2,6.4
		c0,2.5-0.4,4.4-1.1,5.6c-0.8,1.3-1.9,1.9-3.3,1.9c-1,0-1.9-0.3-2.6-0.9c-0.7-0.6-1-1.4-1-2.2c0-0.7,0.1-1.4,0.2-2.1
		c0.1-1.2,0.2-1.9,0.2-2.2c0-1.7-0.8-2.9-2.4-3.8c-1.6-0.9-3.6-1.3-6-1.3c-3.4,0-6,0.6-7.8,1.9c-1.8,1.2-2.7,3-2.7,5.2
		c0,1.5,0.5,2.8,1.4,3.8c0.9,1.1,2.1,2,3.5,2.7c1.4,0.7,3.3,1.6,5.8,2.5c3,1.2,5.4,2.3,7.2,3.3s3.4,2.3,4.6,4
		c1.3,1.7,1.9,3.8,1.9,6.3c0,4.7-1.8,8.2-5.3,10.7c-3.5,2.5-8.3,3.8-14.2,3.8C259.6,291,255.4,290,252.2,288z"/>
	<path class="st0" d="M290.7,288.3c-1.1-1.6-1.7-3.7-1.7-6.1c0-3,0.2-5.7,0.6-8.1c0.4-2.5,1-5.1,2-7.8c0.4-1.2,0.9-2,1.7-2.5
		c0.7-0.5,1.8-0.8,3.4-0.8c0.9,0,1.5,0.1,1.8,0.4c0.3,0.3,0.5,0.7,0.5,1.2c0,0.3-0.2,1.4-0.7,3.2c-0.4,1.5-0.7,2.8-0.9,4
		c-0.8,4.1-1.2,6.9-1.2,8.3c0,0.8,0.1,1.4,0.3,1.7c0.2,0.3,0.5,0.5,0.9,0.5c0.6,0,1.3-0.6,2.2-1.8s1.8-3,2.8-5.4s2-5.4,2.9-8.9
		c0.3-1.2,0.8-2,1.5-2.5c0.7-0.5,1.6-0.8,2.9-0.8c0.9,0,1.5,0.1,1.9,0.3c0.4,0.2,0.5,0.6,0.5,1.2c0,1-0.5,3.7-1.5,8.1
		c-1.1,5.1-1.7,8.2-1.7,9.3c0,0.8,0.2,1.3,0.5,1.7c0.3,0.4,0.7,0.6,1.2,0.6c0.8,0,1.7-0.5,2.8-1.4s2.5-2.5,4.3-4.7
		c0.5-0.6,1-0.8,1.6-0.8c0.5,0,0.9,0.2,1.2,0.7s0.4,1.1,0.4,2c0,1.6-0.4,2.8-1.1,3.7c-1.7,2.1-3.5,3.8-5.5,5.1c-2,1.3-4.2,2-6.7,2
		c-1.9,0-3.3-0.7-4.2-2.2c-0.9-1.5-1.3-3.5-1.3-6.2c-0.7,2.7-1.7,4.7-3,6.2c-1.3,1.4-2.8,2.2-4.3,2.2
		C293.3,290.8,291.8,290,290.7,288.3z"/>
	<path class="st0" d="M317.4,288.4c-0.6-1.6-0.9-4.1-0.9-7.6c0-5.1,0.7-10,2.2-14.6c0.4-1.1,0.9-2,1.7-2.5c0.8-0.5,1.9-0.8,3.4-0.8
		c0.8,0,1.3,0.1,1.7,0.3c0.3,0.2,0.5,0.6,0.5,1.1c0,0.6-0.3,2.1-0.9,4.3c-0.4,1.6-0.7,2.9-0.9,4.1s-0.4,2.6-0.6,4.3
		c1.1-3.1,2.3-5.7,3.8-7.8c1.5-2.1,3-3.7,4.6-4.8s3-1.6,4.4-1.6c1.4,0,2.4,0.3,2.9,0.9c0.6,0.6,0.9,1.6,0.9,2.9
		c0,1.3-0.4,3.5-1.1,6.9c-0.3,1.4-0.5,2.5-0.7,3.2c2-4.9,4.2-8.4,6.6-10.6c2.4-2.2,4.7-3.3,6.7-3.3c2.6,0,3.8,1.3,3.8,3.8
		c0,1.5-0.4,4.3-1.3,8.3c-0.8,3.4-1.1,5.7-1.1,6.8c0,1.6,0.6,2.4,1.7,2.4c0.8,0,1.7-0.5,2.8-1.4c1.1-1,2.5-2.5,4.3-4.7
		c0.5-0.6,1-0.8,1.6-0.8c0.5,0,0.9,0.2,1.2,0.7s0.4,1.1,0.4,2c0,1.6-0.4,2.8-1.1,3.7c-1.7,2.1-3.5,3.8-5.5,5.1c-2,1.3-4.2,2-6.7,2
		c-2,0-3.5-0.6-4.6-1.7c-1-1.2-1.5-2.8-1.5-5.1c0-1.1,0.3-3.1,0.8-5.9c0.5-2.5,0.8-4.2,0.8-5.1c0-0.6-0.2-0.9-0.7-0.9
		c-0.5,0-1.2,0.7-2.2,2c-0.9,1.3-1.9,3.1-2.8,5.2c-0.9,2.2-1.7,4.5-2.3,6.9c-0.4,1.9-0.9,3.2-1.5,3.8c-0.6,0.6-1.5,0.9-2.8,0.9
		c-1.3,0-2.3-0.6-2.9-1.9c-0.7-1.2-1-2.8-1-4.5c0-1.5,0.2-3.7,0.6-6.5c0.3-2.5,0.5-4.2,0.5-5c0-0.6-0.2-0.9-0.7-0.9
		c-0.6,0-1.3,0.7-2.2,2.1c-0.9,1.4-1.8,3.2-2.6,5.4c-0.8,2.2-1.5,4.4-2,6.5c-0.4,1.9-0.9,3.1-1.5,3.8c-0.6,0.7-1.5,1-2.7,1
		C319.1,290.8,318,290,317.4,288.4z"/>
	<path class="st0" d="M361.4,288.4c-0.6-1.6-0.9-4.1-0.9-7.6c0-5.1,0.7-10,2.2-14.6c0.4-1.1,0.9-2,1.7-2.5c0.8-0.5,1.9-0.8,3.4-0.8
		c0.8,0,1.3,0.1,1.7,0.3c0.3,0.2,0.5,0.6,0.5,1.1c0,0.6-0.3,2.1-0.9,4.3c-0.4,1.6-0.7,2.9-0.9,4.1s-0.4,2.6-0.6,4.3
		c1.1-3.1,2.3-5.7,3.8-7.8c1.5-2.1,3-3.7,4.6-4.8s3-1.6,4.4-1.6c1.4,0,2.4,0.3,2.9,0.9c0.6,0.6,0.9,1.6,0.9,2.9
		c0,1.3-0.4,3.5-1.1,6.9c-0.3,1.4-0.5,2.5-0.7,3.2c2-4.9,4.2-8.4,6.6-10.6c2.4-2.2,4.7-3.3,6.7-3.3c2.6,0,3.8,1.3,3.8,3.8
		c0,1.5-0.4,4.3-1.3,8.3c-0.8,3.4-1.1,5.7-1.1,6.8c0,1.6,0.6,2.4,1.7,2.4c0.8,0,1.7-0.5,2.8-1.4c1.1-1,2.5-2.5,4.3-4.7
		c0.5-0.6,1-0.8,1.6-0.8c0.5,0,0.9,0.2,1.2,0.7s0.4,1.1,0.4,2c0,1.6-0.4,2.8-1.1,3.7c-1.7,2.1-3.5,3.8-5.5,5.1c-2,1.3-4.2,2-6.7,2
		c-2,0-3.5-0.6-4.6-1.7c-1-1.2-1.5-2.8-1.5-5.1c0-1.1,0.3-3.1,0.8-5.9c0.5-2.5,0.8-4.2,0.8-5.1c0-0.6-0.2-0.9-0.7-0.9
		c-0.5,0-1.2,0.7-2.2,2c-0.9,1.3-1.9,3.1-2.8,5.2c-0.9,2.2-1.7,4.5-2.3,6.9c-0.4,1.9-0.9,3.2-1.5,3.8c-0.6,0.6-1.5,0.9-2.8,0.9
		c-1.3,0-2.3-0.6-2.9-1.9c-0.7-1.2-1-2.8-1-4.5c0-1.5,0.2-3.7,0.6-6.5c0.3-2.5,0.5-4.2,0.5-5c0-0.6-0.2-0.9-0.7-0.9
		c-0.6,0-1.3,0.7-2.2,2.1c-0.9,1.4-1.8,3.2-2.6,5.4c-0.8,2.2-1.5,4.4-2,6.5c-0.4,1.9-0.9,3.1-1.5,3.8c-0.6,0.7-1.5,1-2.7,1
		C363.1,290.8,362,290,361.4,288.4z"/>
	<path class="st0" d="M432,278c0.3,0.5,0.4,1.1,0.4,2c0,1.6-0.4,2.8-1.1,3.7c-1.5,1.8-3.5,3.4-6.2,4.9c-2.7,1.5-5.5,2.2-8.6,2.2
		c-4.1,0-7.4-1.1-9.6-3.4s-3.4-5.3-3.4-9.2c0-2.7,0.6-5.3,1.7-7.6c1.1-2.3,2.7-4.2,4.8-5.6c2-1.4,4.3-2.1,6.9-2.1
		c2.3,0,4.1,0.7,5.5,2c1.4,1.4,2.1,3.2,2.1,5.5c0,2.7-1,5.1-2.9,7c-2,2-5.3,3.5-9.9,4.6c1,1.8,2.9,2.7,5.6,2.7
		c1.8,0,3.8-0.6,6.1-1.9c2.3-1.2,4.2-2.9,5.9-4.9c0.5-0.6,1-0.8,1.6-0.8C431.3,277.3,431.7,277.5,432,278z M412.2,271.3
		c-1,1.7-1.5,3.7-1.5,6.2v0.1c2.3-0.6,4.2-1.4,5.5-2.5c1.3-1.1,2-2.4,2-3.8c0-0.7-0.2-1.4-0.6-1.8c-0.4-0.5-1-0.7-1.7-0.7
		C414.4,268.7,413.2,269.6,412.2,271.3z"/>
	<path class="st0" d="M453.8,271.9c0.6,0.6,0.9,1.4,0.9,2.3c0,0.5-0.1,1.1-0.4,1.7c-0.6,1.5-1.5,2.7-2.7,3.7c-1.1,1-2.4,1.5-3.8,1.5
		c-1.1,0-2-0.4-2.8-1.2c-0.8-0.8-1.2-1.9-1.2-3.2c0-0.7,0-1.6,0.1-2.4c0.1-0.6,0.1-1.1,0.1-1.3c0-0.3-0.1-0.6-0.2-0.7
		c-0.1-0.2-0.3-0.2-0.5-0.2c-0.6,0-1.3,0.7-2.2,2c-0.9,1.3-1.9,3.1-2.8,5.2c-0.9,2.2-1.7,4.5-2.3,6.9c-0.4,1.9-0.9,3.2-1.5,3.8
		c-0.6,0.6-1.5,0.9-2.7,0.9c-1.5,0-2.6-0.8-3.2-2.4c-0.6-1.6-0.9-4.1-0.9-7.6c0-5.1,0.7-10,2.2-14.6c0.4-1.1,0.9-2,1.7-2.5
		c0.8-0.5,1.9-0.8,3.4-0.8c0.8,0,1.3,0.1,1.7,0.3c0.3,0.2,0.5,0.6,0.5,1.1c0,0.6-0.3,2.1-0.9,4.3c-0.4,1.6-0.7,3-0.9,4.1
		s-0.4,2.6-0.6,4.4c1.3-3.4,2.8-6.2,4.4-8.3c1.6-2.1,3.2-3.6,4.7-4.6c1.5-0.9,2.9-1.4,4.2-1.4c1.1,0,2,0.3,2.6,1
		c0.6,0.7,0.9,1.6,0.9,2.9c0,0.7-0.2,2.2-0.7,4.3h0.5C452.4,271,453.2,271.3,453.8,271.9z"/>
</g>
<path class="st0" d="M175,232l3-105c0,0-3.1,0.7-5-1c-1.6-1.4-1-5,0-8c0.7-2.3,0.3-4.9,2-6c1.7-1.1,4.4-0.6,4-1V89c0,0-1,0-1-3
	s1-3,1-3l2-20l2,20c0,0,1,1,1,3s-1,3-1,3v22c-0.2,0.9,2.5,0.1,4,1c1.9,1.1,1.7,3.9,2,6c0.4,3.6,1.5,6.7,0,8c-1.7,1.6-5,1-5,1l5,105
	H175z"/>
<polygon class="st0" points="166.5,228 153.5,228 153.5,181 166.5,168 "/>
<rect x="142" y="187.5" class="st0" width="5.5" height="45"/>
<rect x="120.3" y="204.6" class="st0" width="24.7" height="31.2"/>
<rect x="193" y="183.5" class="st0" width="7" height="52.3"/>
<polygon class="st0" points="226,185.3 216,185.3 216,251.5 226.8,249.6 "/>
<polygon class="st0" points="211.5,161.1 205.5,161.1 205.5,236.3 211.3,235.3 "/>
<path class="st1" d="M108.5,232.5"/>
<path class="st1" d="M91.5,235.5"/>
<polygon class="st0" points="101.4,217 108,202 103.2,203 109.8,185 105.6,187 113.4,167 120.5,187 116.3,185 124.1,204 119.3,202 
	125.9,217 "/>
<polygon class="st0" points="53.7,214 63.2,196.6 56.3,197.7 65.8,176.8 59.7,179.2 71,156 81.4,179.2 75.3,176.8 86.6,198.9 
	79.6,196.6 89.2,214 "/>
<polygon class="st0" points="82.3,214 89.4,202.4 84.3,203.2 91.4,189.3 86.9,190.9 95.3,175.5 103,190.9 98.5,189.3 106.9,203.9 
	101.7,202.4 108.8,214 "/>
<path class="st2" d="M103.2,248.1c0,0,30.6-14.2,57.3-6.2c26.2,7.8,35.7,7,51.5,1c8.3-3.1,8.4,1.1,8.4,1.1"/>
<path class="st3" d="M106,265.5c0,0,25.8-19.9,56.7-6.2c17.9,7.9,40.8,0.7,55.8-8.3"/>
<path class="st4" d="M51.4,234c0,0,1.4-8,5.7-13.3c6.1-7.6,9.4-8.1,16.4-10.6c6.9-2.2,10.7-1.4,11.9,1.9c0,0-11,3.2-17.1,10.9
	c-2.8,3.5-5.8,17.2-5.8,17.2L51.4,234L51.4,234"/>
<path class="st4" d="M60.7,240c0,0,0.7-9.9,5.8-15.3c6.6-6.9,9.9-9.2,17.3-12c7.3-2.5,11.3-1.5,12.6,2.4c0,0-11.6,3.6-18,12.3
	c-2.9,4-5.9,19.8-5.9,19.8L60.7,240L60.7,240"/>
<path class="st4" d="M72,246c0,0,1.1-11.1,6-18c7-10,11.2-10.5,19.4-13.6c8-2.8,12.5-1.2,14,3.2c0,0-12.8,4-19.8,14
	c-3.2,4.6-6.4,22.7-6.4,22.7L72,246L72,246"/>
<path class="st4" d="M84,255.5c0,0,1.9-16.2,7-23.3c7.3-10.2,10.8-10.9,19.4-14.1c8.4-2.9,14-0.2,15.6,4.3c0,0-13.4,4.2-20.7,14.4
	c-3.4,4.7-6.7,23.2-6.7,23.2L84,255.5l0.7-4"/>
<path class="st4" d="M97,260.5c0,0,1.4-15.3,7.1-23.4c8.3-11.7,16.3-15,23.8-16.3c7.2-1.2,14.1-1,15.8,4.2c0,0-0.4,1.5-2.7,2.5
	c-3.5,1.5-2,6-12.8,9.6c-3.5,1.2-8,6.1-9.5,9.3c-2.9,5.9-6.1,21.5-6.1,21.5L97,260.5l0-2.3"/>
<path class="st5" d="M131.5,237.7c1.5-2.4,13.8-20.7,36.9-22.8c18.4-1.7,36.4,7.6,46.6,23.9L131.5,237.7z"/>
<path class="st0" d="M141.3,237.7c1.2-1.8,10.7-16,28.6-17.6c14.2-1.3,28.2,5.9,36.1,18.5L141.3,237.7z"/>
<g>
	<path class="st6" d="M272.9,184.3c-3.2,9.2-7.4,18-12.2,26.4c-4.9,8.4-10.4,16.4-16.7,23.9c-6.3,7.4-13.4,14.3-21.2,20.2
		c-7.8,6-16.3,11.1-25.3,15c-9,4-18.5,6.9-28.3,8.5c-9.8,1.7-19.8,2-29.6,1.2c-19.8-1.6-38.9-7.9-56.3-16.9
		c-17.4-9.1-33.3-20.8-47.3-34.7c-6.9-7-13.4-14.4-18.9-23c-1.4-2.1-2.7-4.4-3.9-6.7c-1.2-2.4-2.3-4.8-3.1-7.6
		c-0.4-1.4-0.7-2.9-0.9-4.6c-0.1-1.7-0.1-3.6,0.5-5.8c0.3-1.1,0.9-2.2,1.6-3.2c0.7-1,1.6-1.9,2.4-2.6c1.7-1.3,3.4-2,4.7-2.5
		c2.8-1,4.9-1.5,6.6-2.3c1.7-0.7,3-1.5,3.9-2.5c0.9-0.9,1.7-2.3,2.1-3.7c0.4-1.4,0.6-3.1,0.5-4.9c-0.2-3.7-1.5-7.8-3.2-11.8
		c-1.7-4.1-3.8-8.2-6-12.5c-1.1-2.1-2.2-4.3-3.3-6.7c-0.5-1.2-1.1-2.4-1.5-3.8c-0.5-1.4-0.9-2.8-1.2-4.8c-0.1-1-0.2-2.1,0-3.4
		c0.2-1.3,0.7-3,1.7-4.5c1-1.5,2.6-2.7,4.2-3.3c1.5-0.6,2.9-0.8,4-0.8c2.3,0,3.9,0.4,5.4,0.8c1.5,0.4,2.8,0.9,4,1.4
		c4.9,2,9.1,4.1,13.3,6c4.2,1.9,8.3,3.6,12,4.3c1.8,0.3,3.4,0.4,4.4,0.1c1-0.3,1.4-0.6,1.9-1.2c0.5-0.6,1-2,1.2-3.9
		c0.3-1.9,0.4-4.1,0.7-6.7c0.1-1.3,0.3-2.8,0.7-4.4c0.2-0.8,0.5-1.8,0.9-2.7c0.4-1,1-2.1,1.9-3.2c0.9-1.1,2-2.1,3.3-2.8
		c1.3-0.7,2.7-1.2,4-1.3c1.4-0.2,2.6-0.1,3.7,0c1.1,0.2,2.1,0.5,3,0.8c3.5,1.3,5.8,3,8,4.7c2.2,1.7,4.1,3.4,5.9,5.1
		c3.7,3.4,7,6.9,10.3,10c1.6,1.5,3.3,3,4.7,4.1c0.4,0.3,0.7,0.5,1,0.6c0.3,0.2,0.5,0.3,0.5,0.3c0,0-0.1-0.1-0.9-0.1
		c-0.2,0-0.4,0-0.6,0.1c-0.3,0-0.5,0.1-0.8,0.2c-0.5,0.2-1,0.5-1.4,0.8c-0.4,0.3-0.6,0.6-0.7,0.9c-0.1,0.2-0.2,0.3-0.2,0.4
		c0,0.1,0,0,0-0.3c0.1-0.5,0.1-1.4,0.1-2.3c-0.1-1.9-0.3-4.1-0.7-6.3c-0.7-4.4-1.7-9-2.8-13.6c-2.1-9.2-4.5-18.5-6.2-28.3
		c-0.4-2.5-0.8-5-1.1-7.6c-0.2-2.6-0.4-5.3-0.1-8.6c0.2-1.6,0.4-3.4,1.4-5.7c0.5-1.1,1.3-2.4,2.5-3.6c1.2-1.2,2.9-2.2,4.8-2.7
		c1.9-0.5,3.7-0.3,5.1,0c1.4,0.3,2.4,0.8,3.3,1.2c1.8,0.9,3,1.8,4.1,2.6c2.2,1.7,4,3.3,5.8,4.7c1.7,1.4,3.4,2.7,5,3.7
		c1.6,1,3.1,1.6,4.2,1.9c1.1,0.2,1.9,0.1,2.8-0.2c0.9-0.3,1.9-1.1,3-2.3c1.1-1.2,2.1-2.7,3.1-4.5c1.9-3.5,3.6-7.7,5-11.9
		c1.5-4.3,2.8-8.8,4.2-13.4c0.7-2.3,1.4-4.7,2.2-7.1c0.8-2.4,1.7-4.9,3.1-7.6c0.7-1.4,1.4-2.8,2.7-4.4c0.6-0.8,1.5-1.7,2.6-2.5
		c1.1-0.8,2.7-1.7,4.6-2.1c1.9-0.4,3.9-0.3,5.7,0.3c1.7,0.6,3,1.5,4,2.3c1.9,1.7,2.9,3.2,3.8,4.6c1.7,2.8,2.7,5.2,3.6,7.7
		c0.9,2.4,1.7,4.8,2.5,7.1c1.5,4.6,2.9,9.1,4.5,13.5c1.5,4.3,3.2,8.5,5.1,12.3c1,1.9,2,3.6,3.1,5c1.1,1.4,2.2,2.6,3.2,3.2
		c1,0.7,1.8,0.9,2.6,0.9c0.8,0,2-0.2,3.4-1c1.4-0.7,3-1.8,4.7-3.1c1.7-1.3,3.5-2.9,5.8-4.6c1.2-0.8,2.4-1.8,4.4-2.7
		c1-0.4,2.2-0.9,3.8-1.1c1.6-0.2,3.8-0.1,5.6,0.7c1.8,0.8,3.4,2.1,4.5,3.4c1.1,1.4,1.6,2.7,2,3.8c0.7,2.3,0.9,4.1,0.9,5.7
		c0.1,3.2-0.2,5.9-0.6,8.5c-0.4,2.6-0.9,5.1-1.4,7.5c-1,4.8-2.1,9.5-3.2,14.1c-1.1,4.6-2.1,9.2-2.9,13.6c-0.8,4.4-1.4,8.9-1.3,12.7
		c0,1.8,0.3,3.5,0.7,4.3c0.2,0.4,0.2,0.4,0.2,0.3c-0.1-0.1-0.3-0.2-0.2,0c0.1,0.1,0.5,0.3,1.1,0.5c0.6,0.2,1.5,0.3,2.4,0.5
		c1,0.1,2.1,0.2,3.3,0.4c0.6,0.1,1.2,0.1,1.9,0.3c0.6,0.1,1.3,0.2,2,0.4l0.1,0c1.7,0.4,2.7,2.1,2.3,3.8c-0.1,0.2-0.1,0.4-0.2,0.6
		c-0.3,0.7-0.7,1.3-1.2,1.9c-0.4,0.6-0.9,1.1-1.4,1.7c-1,1.1-2.2,2-3.5,2.7c-0.7,0.4-1.4,0.7-2.1,1c-0.8,0.3-1.6,0.5-2.4,0.7
		c-1.7,0.4-3.8,0.5-6,0c-2.2-0.5-4.6-1.7-6.5-3.4c-1.8-1.7-3-3.8-3.8-5.6c-1.5-3.7-1.7-6.9-1.8-9.8c-0.1-5.8,0.7-10.8,1.6-15.8
		c0.9-4.9,2-9.7,3.1-14.4c1.1-4.7,2.2-9.3,3.2-13.8c0.5-2.2,0.9-4.5,1.2-6.6c0.3-2.1,0.5-4.2,0.5-5.8c0-0.4,0-0.7-0.1-1
		c0-0.2-0.1-0.4-0.1-0.4c0,0,0,0.1,0.1,0.2c0.1,0.1,0.1,0.3,0.3,0.5c0.3,0.4,0.9,1,1.7,1.3c0.8,0.3,1.7,0.4,2.1,0.3
		c0.4-0.1,0.5-0.1,0.4-0.1c-0.2,0.1-0.9,0.5-1.7,1.1c-1.5,1.1-3.4,2.7-5.5,4.3c-2.1,1.6-4.4,3.3-7.2,4.7c-2.8,1.4-6.4,2.6-10.3,2.5
		c-3.9,0-7.8-1.4-10.8-3.4c-3-2-5.1-4.4-6.9-6.8c-1.8-2.4-3.2-4.8-4.4-7.2c-2.4-4.8-4.2-9.5-5.9-14.2c-1.6-4.7-3.1-9.3-4.5-13.7
		c-0.7-2.2-1.5-4.4-2.3-6.4c-0.8-2-1.6-4-2.4-5.3c-0.4-0.6-0.8-1.1-0.7-1c0.1,0.1,0.3,0.3,0.9,0.5c0.6,0.2,1.5,0.3,2.2,0.1
		c0.7-0.2,1.2-0.5,1.4-0.6c0.2-0.1,0.1-0.2,0,0c-0.2,0.2-0.6,0.9-1,1.7c-0.8,1.6-1.6,3.6-2.3,5.7c-0.7,2.1-1.4,4.3-2.1,6.6
		c-1.4,4.5-2.7,9.2-4.4,13.9c-1.6,4.7-3.5,9.5-6.2,14.4c-1.4,2.4-3,4.9-5.1,7.2c-2.1,2.3-4.9,4.6-8.5,6c-1.8,0.7-3.7,1.1-5.6,1.3
		c-1.9,0.1-3.8,0-5.6-0.4c-3.5-0.8-6.4-2.3-8.9-3.8c-2.5-1.6-4.6-3.2-6.5-4.8c-1.9-1.6-3.7-3.2-5.3-4.4c-0.8-0.6-1.5-1.1-1.9-1.2
		c-0.2-0.1-0.3-0.1,0-0.1c0.2,0.1,0.8,0.1,1.5-0.1c0.7-0.2,1.4-0.6,1.8-1c0.4-0.4,0.5-0.7,0.5-0.7c0-0.1-0.2,0.5-0.2,1.2
		c-0.2,1.5-0.1,3.6,0.1,5.7c0.2,2.1,0.5,4.3,0.9,6.6c1.5,9,3.8,18.2,5.9,27.6c1,4.7,2.1,9.5,2.8,14.5c0.4,2.5,0.7,5.1,0.8,8
		c0,1.5,0,3-0.2,4.8c-0.1,0.9-0.4,2-0.8,3.2c-0.2,0.6-0.6,1.3-1,2c-0.5,0.7-1.1,1.5-1.9,2.2c-0.8,0.7-1.8,1.3-2.9,1.7
		c-0.5,0.2-1.1,0.3-1.6,0.4c-0.5,0.1-1,0.1-1.5,0.1c-1.9,0-3.3-0.4-4.4-0.8c-1.1-0.4-1.9-0.9-2.7-1.3c-0.8-0.4-1.4-0.9-2-1.3
		c-2.4-1.8-4.3-3.5-6.1-5.3c-3.6-3.5-6.9-6.9-10.2-10c-1.6-1.6-3.3-3-4.9-4.3c-1.6-1.2-3.2-2.3-4.2-2.7c-0.2-0.1-0.4-0.1-0.5-0.1
		c-0.1,0,0,0,0.2,0c0.2,0,0.4-0.1,0.6-0.2c0.2-0.1,0.5-0.4,0.6-0.5c0.2-0.3,0-0.1-0.2,0.6c-0.2,0.6-0.3,1.6-0.4,2.6
		c-0.2,2.1-0.4,4.7-0.8,7.5c-0.2,1.4-0.6,2.9-1.1,4.5c-0.5,1.6-1.3,3.3-2.5,4.9c-1.2,1.6-2.7,3.1-4.4,4.2c-1.7,1.1-3.6,1.8-5.4,2.2
		c-3.7,0.8-6.9,0.4-9.8-0.1c-5.7-1.2-10.4-3.3-14.9-5.4c-4.5-2.1-8.7-4.3-12.7-5.9c-1-0.4-1.9-0.7-2.7-1c-0.8-0.2-1.6-0.3-1.7-0.3
		c-0.1,0,0.1,0,0.5-0.2c0.4-0.2,1-0.6,1.4-1.1c0.4-0.5,0.5-1,0.5-1.2c0-0.2,0-0.1,0,0.2c0,0.4,0.3,1.3,0.6,2.2
		c0.3,0.9,0.7,1.9,1.1,2.9c0.9,2,1.9,4.1,2.9,6.2c2.1,4.3,4.3,8.7,6.2,13.4c1.9,4.8,3.6,9.9,3.9,15.7c0.2,2.9-0.1,6.1-1,9.2
		c-1,3.1-2.6,6.1-5,8.6c-2.4,2.5-5.4,4.1-8.1,5.1c-2.7,1-5.2,1.6-6.9,2.3c-0.9,0.3-1.4,0.6-1.6,0.7c-0.1,0.1,0-0.1,0,0
		c-0.1,0.1-0.1,0.6-0.1,1.3c0,0.7,0.2,1.6,0.4,2.4c1,3.6,3.1,7.6,5.4,11.4c4.7,7.6,10.7,14.7,17.1,21.3
		c12.9,13.2,27.9,24.6,44.2,33.5c16.3,8.8,34,15,52.3,16.9c9.1,0.9,18.4,0.8,27.4-0.6c9.1-1.4,18-3.9,26.5-7.4
		c17.1-7,32.3-18.4,44.7-32.3c6.2-6.9,11.8-14.5,16.7-22.5c4.9-8,9.2-16.4,12.5-25.1l0,0c0.5-1.3,1.9-1.9,3.2-1.5
		C272.6,181.6,273.3,183,272.9,184.3z"/>
</g>
<path class="st7" d="M294.5,155.1"/>
<path class="st7" d="M294.5,148.5"/>
<path class="st6" d="M283.1,151.1c0,0,6.1-10.3,8.6-13.1c2.2-2.5,4.5-4.3,5.8-3.7c1.2,0.7,1.3,4.4,0.5,7c-0.6,2.1-6.1,14.4-6.1,14.4
	l4.9,7.8l2.6-3.5l3.4,1.6c0,0-0.4,2.7-1,3.8c-0.6,1.1-1.9,2.8-1.9,2.8l5.3,8.1c0,0,1,1.7,0.9,3.1c-0.2,1.4-0.8,4.1-2.4,4.3
	s-2.3-0.6-3.1-1.2c-0.9-0.7-15.9-13.9-15.9-13.9l-8.4,13.9l0,1.5c0,0,4.2,8.3,3.2,9.5c-0.9,1.2-8.1-5-10-5.8
	c-1.9-0.7-10.7-3.5-10.9-4.7c-0.2-1.2,10.5-3.2,10.5-3.2l0.9-0.9l6.4-14.3l-21.4-6.1c0,0-1.4-1-1.7-2.1c-0.2-1.1,1.9-3.9,2.6-4.2
	c0.6-0.3,1.9-0.8,3-0.9s9.8,0,9.8,0s0.4-2.1,0.9-3s2.2-2.9,2.2-2.9l3.4,1.6l-1.3,4.4L283.1,151.1z"/>
</svg>
